# xmcd
#
# Track frame offsets: 
#        150
#        12888
#        40533
#        63502
#        75417
#        95778
#        116941
#        137663
#        151985
#        167165
#        173979
#        182688
#
# Disc length: 2482 seconds
#
# Revision: 1
# Processed by: cddbd v1.5.2PL0 Copyright (c) Steve Scherf et al.
# Submitted via: ExactAudioCopy v1.3
#
DISCID=9709b00c
DTITLE=Seay - 1 Voice
DYEAR=2005
DGENRE=New Age
TTITLE0=1 Voice
TTITLE1=Love Is the Ocean
TTITLE2=Angelica
TTITLE3=Still
TTITLE4=Canon in B
TTITLE5=Kyrie the Calling
TTITLE6=Orion's Gate
TTITLE7=Gothica
TTITLE8=Winter
TTITLE9=Siren Song
TTITLE10=Ohm A Yehu
TTITLE11=Love is the Ocean
EXTD=YEAR: 2005
EXTT0=
EXTT1=
EXTT2=
EXTT3=
EXTT4=
EXTT5=
EXTT6=
EXTT7=
EXTT8=
EXTT9=
EXTT10=
EXTT11=
PLAYORDER=
